<svg id="Capa_1" xmlns="http://www.w3.org/2000/svg" xmlns:xlink="http://www.w3.org/1999/xlink" viewBox="0 0 376.4 376.4" style="enable-background:new 0 0 376.4 376.4"><g><g><path d="M375.76 191.32l-.32.16-54-134.4h24.64c4.418.0 8-3.582 8-8s-3.582-8-8-8H195.52V17.96c0-4.418-3.582-8-8-8s-8 3.582-8 8V41H29.04c-4.418.0-8 3.582-8 8s3.582 8 8 8h25.68L.64 191.32c-.4.937-.617 1.942-.64 2.96.0 36.738 29.782 66.52 66.52 66.52s66.52-29.782 66.52-66.52c-.023-1.018-.24-2.023-.64-2.96l-54-134.4h101.12v247.36c-38.16 2.88-68 26.08-68 54.16.0 4.418 3.582 8 8 8h136c4.418.0 8-3.582 8-8 0-28.08-29.84-51.28-68-54.16V56.92h102.16L244 191.32c-.4.937-.617 1.942-.64 2.96.0 36.738 29.782 66.52 66.52 66.52s66.52-29.782 66.52-66.52C376.377 193.262 376.16 192.257 375.76 191.32zM66.48 244.92c-24.778-.034-45.88-18.02-49.84-42.48H116C112.06 226.781 91.137 244.73 66.48 244.92zM113.12 186.44H20L66.64 70.36 113.12 186.44zm132.96 164h-117.2c5.92-17.2 30.32-30.48 58.56-30.48S240.16 333.24 246.08 350.44zM309.52 70.44l46.48 116h-93.12L309.52 70.44zm0 174.48V245c-24.683-.197-45.615-18.187-49.52-42.56h99.36C355.4 226.9 334.298 244.886 309.52 244.92z"/></g></g><g/><g/><g/><g/><g/><g/><g/><g/><g/><g/><g/><g/><g/><g/><g/></svg>