<svg id="Capa_1" vidth="20px" height='20px' xmlns="http://www.w3.org/2000/svg" xmlns:xlink="http://www.w3.org/1999/xlink" viewBox="0 0 486.569 486.569" style="fill:#fff"><g><path d="M146.069 320.369h268.1c30.4.0 55.2-24.8 55.2-55.2v-112.8c0-.1.0-.3.0-.4.0-.3.0-.5.0-.8.0-.2.0-.4-.1-.6.0-.2-.1-.5-.1-.7s-.1-.4-.1-.6c-.1-.2-.1-.4-.2-.7-.1-.2-.1-.4-.2-.6-.1-.2-.1-.4-.2-.6-.1-.2-.2-.4-.3-.7-.1-.2-.2-.4-.3-.5-.1-.2-.2-.4-.3-.6-.1-.2-.2-.3-.3-.5-.1-.2-.3-.4-.4-.6-.1-.2-.2-.3-.4-.5-.1-.2-.3-.3-.4-.5s-.3-.3-.4-.5-.3-.3-.4-.4c-.2-.2-.3-.3-.5-.5-.2-.1-.3-.3-.5-.4-.2-.1-.4-.3-.6-.4-.2-.1-.3-.2-.5-.3s-.4-.2-.6-.4c-.2-.1-.4-.2-.6-.3s-.4-.2-.6-.3-.4-.2-.6-.3-.4-.1-.6-.2c-.2-.1-.5-.2-.7-.2s-.4-.1-.5-.1c-.3-.1-.5-.1-.8-.1-.1.0-.2-.1-.4-.1l-339.8-46.9v-47.4c0-.5.0-1-.1-1.4.0-.1.0-.2-.1-.4.0-.3-.1-.6-.1-.9-.1-.3-.1-.5-.2-.8.0-.2-.1-.3-.1-.5-.1-.3-.2-.6-.3-.9.0-.1-.1-.3-.1-.4-.1-.3-.2-.5-.4-.8-.1-.1-.1-.3-.2-.4-.1-.2-.2-.4-.4-.6-.1-.2-.2-.3-.3-.5s-.2-.3-.3-.5-.3-.4-.4-.6c-.1-.1-.2-.2-.3-.3-.2-.2-.4-.4-.6-.6-.1-.1-.2-.2-.3-.3-.2-.2-.4-.4-.7-.6-.1-.1-.3-.2-.4-.3-.2-.2-.4-.3-.6-.5-.3-.2-.6-.4-.8-.5-.1-.1-.2-.1-.3-.2-.4-.2-.9-.4-1.3-.6l-73.7-31c-6.9-2.9-14.8.3-17.7 7.2s.3 14.8 7.2 17.7l65.4 27.6v61.2 9.7 74.4 66.5 84c0 28 21 51.2 48.1 54.7-4.9 8.2-7.8 17.8-7.8 28 0 30.1 24.5 54.5 54.5 54.5s54.5-24.5 54.5-54.5c0-10-2.7-19.5-7.5-27.5h121.4c-4.8 8.1-7.5 17.5-7.5 27.5.0 30.1 24.5 54.5 54.5 54.5s54.5-24.5 54.5-54.5-24.5-54.5-54.5-54.5h-255c-15.6.0-28.2-12.7-28.2-28.2v-36.6C126.069 317.569 135.769 320.369 146.069 320.369zM213.269 431.969c0 15.2-12.4 27.5-27.5 27.5s-27.5-12.4-27.5-27.5 12.4-27.5 27.5-27.5S213.269 416.769 213.269 431.969zM428.669 431.969c0 15.2-12.4 27.5-27.5 27.5s-27.5-12.4-27.5-27.5 12.4-27.5 27.5-27.5S428.669 416.769 428.669 431.969zM414.169 293.369h-268.1c-15.6.0-28.2-12.7-28.2-28.2v-66.5-74.4-5l324.5 44.7v101.1C442.369 280.769 429.669 293.369 414.169 293.369z"/></g><g/><g/><g/><g/><g/><g/><g/><g/><g/><g/><g/><g/><g/><g/><g/></svg>