<svg id="Capa_1" xmlns="http://www.w3.org/2000/svg" xmlns:xlink="http://www.w3.org/1999/xlink" width="17px" height="19px" viewBox="0 0 369.982 369.982" style="fill:#009fff"><g><path d="M314.821 47.893c-34.797-28.139-80.904-43.636-129.83-43.636S89.958 19.754 55.161 47.894C19.59 76.661.0 115.142.0 156.249c0 41.108 19.59 79.591 55.161 108.356 34.797 28.141 80.904 43.639 129.83 43.639 4.981.0 10-.166 14.995-.496l31.509 51.959c2.213 3.648 6.134 5.916 10.399 6.018.097.002.191.002.29.002 4.155.0 8.051-2.068 10.376-5.529l66.711-99.326c32.727-28.33 50.711-65.371 50.711-104.621C369.982 115.141 350.393 76.66 314.821 47.893zM300.904 243.673l-58.183 86.332-25.372-41.838c-2.279-3.76-6.348-6.018-10.686-6.018-.419.0-.84.021-1.262.062-6.752.684-13.619 1.029-20.412 1.029-88.22.0-159.991-56.97-159.991-126.994.0-70.023 71.771-126.992 159.991-126.992 88.22.0 159.991 56.969 159.991 126.992C344.982 188.885 329.328 219.932 300.904 243.673z"/></g><g/><g/><g/><g/><g/><g/><g/><g/><g/><g/><g/><g/><g/><g/><g/></svg>