<svg id="Capa_1" xmlns="http://www.w3.org/2000/svg" xmlns:xlink="http://www.w3.org/1999/xlink" viewBox="0 0 56.48 56.48" style="enable-background:new 0 0 56.48 56.48"><g><g><path d="M55.026 9.939H1.454C.65 9.939.0 10.59.0 11.393v33.695c0 .803.65 1.454 1.454 1.454h53.572c.804.0 1.454-.651 1.454-1.454V11.393C56.48 10.59 55.83 9.939 55.026 9.939zM4.373 21h6.028c.813.031 1.468.29 1.694 1.159l1.311 6.305c-1.288-3.298-4.392-6.042-9.083-7.178L4.373 21zM11.667 35.38 8.185 23.484c2.503 1.602 4.635 4.144 5.386 5.913l.406 1.469 3.808-9.729h4.12l-6.123 14.24L11.667 35.38zM24.933 35.39h-3.888l2.431-14.268h3.89L24.933 35.39zM31.699 35.604c-1.743-.018-3.422-.363-4.332-.762l.547-3.193.501.227c1.277.533 2.104.749 3.661.749 1.117.0 2.314-.437 2.325-1.393.007-.625-.501-1.071-2.015-1.771-1.476-.682-3.43-1.826-3.406-3.875.021-2.773 2.729-4.708 6.572-4.708 1.506.0 2.713.31 3.483.599L38.51 24.57l-.351-.165c-.716-.288-1.637-.566-2.91-.546-1.522.0-2.228.634-2.228 1.227-.008.668.824 1.108 2.184 1.77 2.243 1.018 3.28 2.253 3.266 3.876C38.441 33.692 35.788 35.604 31.699 35.604zM48.549 35.396c0 0-.355-1.64-.473-2.138-.566.0-4.534-.006-4.98-.006-.151.385-.817 2.144-.817 2.144h-4.083l5.773-13.075c.41-.929 1.105-1.184 2.037-1.184h3.004l3.147 14.258L48.549 35.396z"/></g></g><g><g><path d="M46.542 26.215l-.262-1.23c-.198.537-.539 1.4-.517 1.362.0.0-1.229 3.167-1.549 3.988h3.229C47.287 29.62 46.542 26.215 46.542 26.215z"/></g></g><g/><g/><g/><g/><g/><g/><g/><g/><g/><g/><g/><g/><g/><g/><g/></svg>